#!OML:ASF H:\Dans Jumps\Project 1\Capture day 1\Session 1\subject.ASF
:FULLY-SPECIFIED
:DEGREES
164
root 0.706057 14.5681 -16.7011 34.2848 -1.64568 -2.1454
lowerback 29.8163 1.05033 -0.996245
upperback 4.12074 1.34653 2.52238
thorax -11.918 0.714169 2.95507
lowerneck -20.9186 -0.211229 -2.83956
upperneck -6.37305 0.356817 -0.893069
head 1.45764 0.198821 0.229572
rclavicle 3.37934e-015 1.35174e-014
rhumerus -48.7422 -18.4118 -62.5155
rradius 22.073
rwrist 39.114
rhand -16.4198 -22.0193
rfingers 7.12502
rthumb 9.79516 -51.7715
lclavicle 3.37934e-015 1.35174e-014
lhumerus -46.2248 8.61384 73.1226
lradius 13.0298
lwrist -2.06118
lhand -27.5187 -8.22353
lfingers 7.12502
lthumb -0.921034 21.7542
rfemur -85.2415 -0.684496 22.2119
rtibia 74.9029
rfoot -26.8171 -13.104
rtoes -1.29642
lfemur -85.3027 6.22781 -22.877
ltibia 74.6572
lfoot -23.1846 17.1669
ltoes -13.9837
165
root 0.701774 14.4936 -16.7182 34.7093 -1.55504 -2.16827
lowerback 30.8669 1.07067 -0.956037
upperback 3.64948 1.39278 2.65508
thorax -12.1702 0.708148 2.83531
lowerneck -20.9185 -0.224884 -2.86943
upperneck -6.85243 0.337216 -0.909569
head 1.29211 0.195762 0.226271
rclavicle -1.17283e-014 -2.46493e-014
rhumerus -49.8466 -18.5627 -61.8265
rradius 21.8906
rwrist 39.4776
rhand -16.3266 -21.8761
rfingers 7.12502
rthumb 9.88509 -51.624
lclavicle -1.17283e-014 -2.46493e-014
lhumerus -47.2878 8.99667 72.5451
lradius 12.7781
lwrist -2.30841
lhand -27.1414 -8.16561
lfingers 7.12502
lthumb -0.556704 21.8134
rfemur -86.2915 -0.67629 22.2978
rtibia 75.7624
rfoot -27.2114 -13.4931
rtoes -1.08495
lfemur -86.3783 6.12148 -22.8485
ltibia 75.5023
lfoot -23.396 17.4232
ltoes -13.8099
166
root 0.697354 14.4223 -16.7331 35.0836 -1.44671 -2.19781
lowerback 31.8599 1.08284 -0.906961
upperback 3.54974 1.4312 2.68923
thorax -12.7079 0.725274 2.82391
lowerneck -20.9162 -0.237155 -2.89497
upperneck -7.33389 0.318112 -0.921159
head 1.12611 0.193165 0.223843
rclavicle 4.17448e-015 -7.95139e-016
rhumerus -50.9195 -18.6867 -61.1496
rradius 21.7084
rwrist 39.8186
rhand -16.2146 -21.8005
rfingers 7.12502
rthumb 9.99312 -51.5433
lclavicle 4.17448e-015 -7.95139e-016
lhumerus -48.3386 9.44561 71.8845
lradius 12.5151
lwrist -2.71858
lhand -26.7472 -8.10846
lfingers 7.12502
lthumb -0.175935 21.8712
rfemur -87.2495 -0.67744 22.3999
rtibia 76.5862
rfoot -27.6198 -13.852
rtoes -0.882566
lfemur -87.3687 6.01991 -22.8039
ltibia 76.3121
lfoot -23.6108 17.682
ltoes -13.6107
167
root 0.692772 14.3549 -16.7448 35.405 -1.33411 -2.23428
lowerback 32.9006 1.09653 -0.849709
upperback 3.44672 1.47599 2.72419
thorax -13.2635 0.744243 2.80626
lowerneck -20.92 -0.251211 -2.91658
upperneck -7.79958 0.296158 -0.922371
head 0.967166 0.189197 0.223972
rclavicle -2.98177e-015 1.02374e-014
rhumerus -51.9727 -18.8314 -60.4521
rradius 21.5198
rwrist 40.1279
rhand -16.1044 -21.7317
rfingers 7.12502
rthumb 10.0994 -51.4693
lclavicle -2.98177e-015 1.02374e-014
lhumerus -49.3716 9.94189 71.139
lradius 12.2355
lwrist -3.34235
lhand -26.4915 -8.10393
lfingers 7.12502
lthumb 0.071002 21.8758
rfemur -88.1058 -0.679775 22.5145
rtibia 77.3692
rfoot -28.0454 -14.1648
rtoes -0.697773
lfemur -88.261 5.93175 -22.7465
ltibia 77.084
lfoot -23.8259 17.9443
ltoes -13.3938
168
root 0.687777 14.2911 -16.753 35.6908 -1.22735 -2.27185
lowerback 33.9649 1.11725 -0.801922
upperback 3.33413 1.52811 2.75945
thorax -13.8338 0.766384 2.791
lowerneck -20.9276 -0.268936 -2.9373
upperneck -8.2412 0.269726 -0.909776
head 0.817649 0.183006 0.228195
rclavicle -4.17448e-015 -3.47873e-015
rhumerus -53.0005 -18.9687 -59.7513
rradius 21.3221
rwrist 40.3582
rhand -16.0103 -21.6726
rfingers 7.12502
rthumb 10.1902 -51.4058
lclavicle -4.17448e-015 -3.47873e-015
lhumerus -50.3959 10.4743 70.3165
lradius 11.9426
lwrist -4.20908
lhand -26.3495 -8.10702
lfingers 7.12502
lthumb 0.208205 21.8726
rfemur -88.8831 -0.679051 22.6346
rtibia 78.1135
rfoot -28.4782 -14.4241
rtoes -0.542975
lfemur -89.074 5.8595 -22.6869
ltibia 77.8178
lfoot -24.0337 18.208
ltoes -13.1662
169
root 0.682511 14.2309 -16.7566 35.9419 -1.13638 -2.30783
lowerback 35.033 1.14922 -0.771622
upperback 3.21479 1.58878 2.79136
thorax -14.4075 0.792506 2.77786
lowerneck -20.9497 -0.289204 -2.95263
upperneck -8.64271 0.240164 -0.884626
head 0.684636 0.174789 0.235517
rclavicle -1.35174e-014 -1.65985e-014
rhumerus -53.9955 -19.0891 -59.0656
rradius 21.1175
rwrist 40.5103
rhand -15.9606 -21.6261
rfingers 7.12502
rthumb 10.2382 -51.357
lclavicle -1.35174e-014 -1.65985e-014
lhumerus -51.401 11.0765 69.3802
lradius 11.609
lwrist -5.36024
lhand -26.3358 -8.13078
lfingers 7.12502
lthumb 0.221384 21.8488
rfemur -89.5779 -0.675163 22.7569
rtibia 78.82
rfoot -28.9188 -14.6285
rtoes -0.396753
lfemur -89.8012 5.80406 -22.6302
ltibia 78.5155
lfoot -24.2396 18.472
ltoes -12.9352
170
root 0.676145 14.1767 -16.7538 36.1139 -1.05515 -2.32655
lowerback 36.1392 1.19231 -0.77096
upperback 3.09927 1.65212 2.82027
thorax -14.9854 0.820617 2.77569
lowerneck -20.9798 -0.311775 -2.96193
upperneck -9.00998 0.207405 -0.849582
head 0.564928 0.164468 0.24494
rclavicle -4.37326e-015 3.926e-014
rhumerus -54.9399 -19.2093 -58.3917
rradius 20.8907
rwrist 40.6468
rhand -15.9354 -21.5778
rfingers 7.12502
rthumb 10.2625 -51.3074
lclavicle -4.37326e-015 3.926e-014
lhumerus -52.3696 11.7318 68.3448
lradius 11.2324
lwrist -6.72853
lhand -26.3583 -8.12661
lfingers 7.12502
lthumb 0.199647 21.853
rfemur -90.1251 -0.68154 22.8707
rtibia 79.4878
rfoot -29.3821 -14.7944
rtoes -0.233104
lfemur -90.3736 5.7603 -22.5844
ltibia 79.1708
lfoot -24.465 18.7287
ltoes -12.7148
171
root 0.671037 14.1253 -16.746 36.264 -1.01291 -2.34436
lowerback 37.2804 1.24989 -0.782382
upperback 2.91403 1.72495 2.82949
thorax -15.5351 0.852529 2.76465
lowerneck -21.0101 -0.336012 -2.96317
upperneck -9.3636 0.171207 -0.808326
head 0.450202 0.152023 0.254838
rclavicle -7.95139e-015 -3.44891e-014
rhumerus -55.8134 -19.3555 -57.7172
rradius 20.6239
rwrist 40.9205
rhand -15.9641 -21.5365
rfingers 7.12502
rthumb 10.2348 -51.2675
lclavicle -7.95139e-015 -3.44891e-014
lhumerus -53.2776 12.4714 67.1874
lradius 10.8081
lwrist -8.28123
lhand -26.3155 -8.08796
lfingers 7.12502
lthumb 0.240987 21.8916
rfemur -90.6126 -0.692637 22.9863
rtibia 80.1226
rfoot -29.8319 -14.909
rtoes -0.0633639
lfemur -90.8793 5.73514 -22.5568
ltibia 79.7996
lfoot -24.689 18.9832
ltoes -12.4912
172
root 0.666261 14.0768 -16.7331 36.3814 -0.995918 -2.35267
lowerback 38.3076 1.31897 -0.818998
upperback 2.81711 1.79993 2.83598
thorax -16.049 0.885803 2.75133
lowerneck -21.0306 -0.360056 -2.95416
upperneck -9.72507 0.132705 -0.771158
head 0.331534 0.138017 0.261544
rclavicle 0 -3.08116e-015
rhumerus -56.5971 -19.5384 -57.0465
rradius 20.3118
rwrist 41.394
rhand -16.0204 -21.4993
rfingers 7.12502
rthumb 10.1805 -51.233
lclavicle 0 -3.08116e-015
lhumerus -54.1123 13.3038 65.8997
lradius 10.3494
lwrist -9.96362
lhand -26.165 -8.04868
lfingers 7.12502
lthumb 0.386393 21.9307
rfemur -91.0282 -0.716079 23.0978
rtibia 80.7279
rfoot -30.2621 -14.9959
rtoes 0.130872
lfemur -91.3063 5.72378 -22.5504
ltibia 80.4032
lfoot -24.92 19.2158
ltoes -12.2562
173
root 0.662366 14.0297 -16.7161 36.4907 -1.00399 -2.36808
lowerback 39.2599 1.39791 -0.858311
upperback 2.73431 1.88232 2.83288
thorax -16.511 0.921325 2.72473
lowerneck -21.0246 -0.380916 -2.92158
upperneck -10.1213 0.0915234 -0.754316
head 0.197277 0.121841 0.257511
rclavicle 1.39149e-015 2.82274e-014
rhumerus -57.2878 -19.7929 -56.3505
rradius 19.9487
rwrist 42.1585
rhand -16.0891 -21.4556
rfingers 7.12502
rthumb 10.1142 -51.1925
lclavicle 1.39149e-015 2.82274e-014
lhumerus -54.5903 13.449 65.622
lradius 9.87093
lwrist -10.4137
lhand -26.1216 -7.89838
lfingers 7.12502
lthumb 0.428254 22.0809
rfemur -91.4093 -0.744143 23.2177
rtibia 81.307
rfoot -30.6488 -15.0653
rtoes 0.316812
lfemur -91.6973 5.73285 -22.5552
ltibia 80.9937
lfoot -25.1477 19.4243
ltoes -11.9786
174
root 0.659236 13.9832 -16.6956 36.6165 -1.02036 -2.39454
lowerback 40.0977 1.47658 -0.888335
upperback 2.66775 1.96625 2.82817
thorax -16.905 0.956186 2.69027
lowerneck -20.9743 -0.391386 -2.8625
upperneck -10.5723 0.0550441 -0.777507
head 0.037969 0.107045 0.236434
rclavicle -7.95139e-015 -2.01766e-014
rhumerus -57.861 -20.0854 -55.6633
rradius 19.548
rwrist 43.1357
rhand -16.1333 -21.4346
rfingers 7.12502
rthumb 10.0715 -51.1736
lclavicle -7.95139e-015 -2.01766e-014
lhumerus -54.9385 13.6207 65.3754
lradius 9.40703
lwrist -10.8295
lhand -25.9941 -7.7528
lfingers 7.12502
lthumb 0.551462 22.2262
rfemur -91.7901 -0.779426 23.3524
rtibia 81.8632
rfoot -30.9785 -15.1289
rtoes 0.467986
lfemur -92.0909 5.7572 -22.5659
ltibia 81.5738
lfoot -25.3566 19.604
ltoes -11.6684
175
root 0.65674 13.9374 -16.6714 36.7617 -1.03015 -2.44585
lowerback 40.8072 1.54955 -0.88626
upperback 2.617 2.05587 2.82321
thorax -17.2279 0.990618 2.63557
lowerneck -20.8886 -0.392089 -2.76319
upperneck -11.0645 0.0194309 -0.850574
head -0.140039 0.0908554 0.192891
rclavicle -1.17283e-014 3.43897e-014
rhumerus -58.3291 -20.4403 -54.9714
rradius 19.1233
rwrist 44.2362
rhand -16.1304 -21.4213
rfingers 7.12502
rthumb 10.0744 -51.1601
lclavicle -1.17283e-014 3.43897e-014
lhumerus -55.1589 13.8093 65.1537
lradius 8.97491
lwrist -11.2767
lhand -25.798 -7.62355
lfingers 7.12502
lthumb 0.740824 22.3549
rfemur -92.1676 -0.815908 23.5152
rtibia 82.3939
rfoot -31.2505 -15.191
rtoes 0.574734
lfemur -92.4908 5.7998 -22.5633
ltibia 82.1442
lfoot -25.542 19.7594
ltoes -11.3367
176
root 0.653814 13.894 -16.6425 36.906 -1.02048 -2.51176
lowerback 41.4076 1.61497 -0.860964
upperback 2.57985 2.14737 2.82475
thorax -17.4914 1.02396 2.57483
lowerneck -20.7694 -0.387374 -2.64169
upperneck -11.5769 -0.0166628 -0.958344
head -0.329109 0.0733205 0.134951
rclavicle 7.7526e-015 4.67144e-015
rhumerus -58.6859 -20.8342 -54.299
rradius 18.6844
rwrist 45.2986
rhand -16.0831 -21.4117
rfingers 7.12502
rthumb 10.12 -51.1484
lclavicle 7.7526e-015 4.67144e-015
lhumerus -55.2657 14.013 64.9599
lradius 8.58969
lwrist -11.8184
lhand -25.555 -7.48271
lfingers 7.12502
lthumb 0.975525 22.4948
rfemur -92.5062 -0.85338 23.6951
rtibia 82.8955
rfoot -31.4816 -15.2575
rtoes 0.632267
lfemur -92.8601 5.85581 -22.5469
ltibia 82.6934
lfoot -25.7088 19.8918
ltoes -11.0099
